<?xml version="1.0"?><svg width="640" height="480" xmlns="http://www.w3.org/2000/svg" xmlns:xlink="http://www.w3.org/1999/xlink">
 <defs>
  <linearGradient id="linearGradient4382">
   <stop stop-color="#ffffff" id="stop4384" offset="0"/>
   <stop stop-color="#000000" id="stop4386" offset="1"/>
  </linearGradient>
  <radialGradient gradientUnits="userSpaceOnUse" gradientTransform="matrix(1.8547147,-0.73797088,0.41990973,1.0553434,-349.58925,131.97957)" r="257.82605" fy="305.0495" fx="221.45523" cy="305.0495" cx="221.45523" id="radialGradient4388" xlink:href="#linearGradient4382"/>
 </defs>
 <metadata id="metadata3843">image/svg+xml</metadata>
 <g>
  <path fill="none" stroke="#000000" stroke-width="6" stroke-miterlimit="4" stroke-dasharray="6,12" stroke-dashoffset="60" id="path4660" d="m126.359627,168.346741c-3.610207,66.580688 63.187172,90.865356 120.903496,90.865356"/>
  <path fill="none" stroke="#000000" stroke-width="6" stroke-miterlimit="4" stroke-dasharray="6,12" stroke-dashoffset="0" id="path4660-8" d="m356.570709,257.433228c45.910339,-48.355591 112.62674,-10.11615 152.269867,31.83136"/>
  <path fill="#117a88" fill-rule="nonzero" stroke="#000000" stroke-width="2" stroke-miterlimit="4" stroke-dashoffset="0" id="rect3848" d="m235.409546,200.319702c48.175049,1.308411 98.193665,0.404541 132.751068,18.054169c-4.259033,48.498383 -16.54776,96.996765 -57.34845,145.495148c-31.506256,5.134033 -63.012512,7.466003 -94.518768,-18.054138c19.980988,-48.498383 30.187119,-96.996765 19.11615,-145.495148l0,-0.000031z"/>
  <path fill="#117a88" fill-rule="nonzero" stroke="#000000" stroke-width="4.172531" stroke-miterlimit="4" stroke-dashoffset="0" id="path3850" d="m223.076965,179.90387c-4.83107,-42.554749 13.274185,-97.857727 68.304688,-117.659851c78.217926,-28.145874 113.411835,85.296875 113.411835,85.296875c0,0 -53.786407,1.191895 -80.23819,5.561401c-34.518219,5.701904 -101.478333,26.801575 -101.478333,26.801575z"/>
  <path fill="#ffffff" fill-rule="nonzero" stroke="#000000" stroke-width="2" stroke-miterlimit="4" stroke-dashoffset="0" d="m375.676178,83.113525c0,24.677063 -20.0047,44.681763 -44.681732,44.681763c-24.677032,0 -44.681702,-20.0047 -44.681702,-44.681763c0,-24.677032 20.004669,-44.681702 44.681702,-44.681702c24.677032,0 44.681732,20.004669 44.681732,44.681702z" id="path3866"/>
  <path fill="#000000" fill-rule="nonzero" stroke="#000000" stroke-width="2" stroke-miterlimit="4" stroke-dashoffset="0" d="m365.913757,89.121155c0,6.428467 -5.211304,11.639771 -11.639771,11.639771c-6.428467,0 -11.639771,-5.211304 -11.639771,-11.639771c0,-6.428467 5.211304,-11.639771 11.639771,-11.639771c6.428467,0 11.639771,5.211304 11.639771,11.639771z" id="path3868"/>
  <path fill="#06a2b6" fill-rule="nonzero" stroke="#000000" stroke-width="2" stroke-miterlimit="4" stroke-dashoffset="0" id="path4415" d="m259.621582,212.139282c5.904144,42.722351 -3.565826,85.962769 -18.937515,125.6875c20.669724,13.041748 46.969254,14.846191 70.500015,9.4375c28.476959,-34.854675 45.556885,-78.637085 49.1875,-123.375c-32.04187,-12.043213 -66.991913,-11.055115 -100.8125,-12.25l0.0625,0.5z"/>
  <path fill="#00e3ff" fill-rule="nonzero" stroke="#000000" stroke-width="2" stroke-miterlimit="4" stroke-dashoffset="0" id="path4450" d="m294.778809,240.107544c-0.56723,26.891663 -5.824646,53.422546 -13.375,79.15625c6.483856,0.592224 14.243469,1.765198 20.120392,-0.682983c16.259888,-22.609192 27.875732,-48.865845 32.910858,-76.317017c-13.059052,-2.390869 -26.315948,-3.568604 -39.625,-3.6875l-0.020416,0.999756l-0.010895,0.531494l0.000061,0z"/>
  <path fill="#117a88" fill-rule="nonzero" stroke="#000000" stroke-width="2" stroke-miterlimit="4" stroke-dashoffset="0" id="path4652" d="m196.479599,407.117004c-7.655624,7.270081 -26.631027,-0.283081 -42.382797,-16.870239c-15.75174,-16.587158 -22.314941,-35.927246 -14.659332,-43.197266c7.65564,-7.27002 12.769333,13.446594 28.521088,30.033752c15.75174,16.587219 36.176682,22.763733 28.521042,30.033813l0,-0.000061z"/>
  <path fill="#117a88" fill-rule="nonzero" stroke="#000000" stroke-width="2" stroke-miterlimit="4" stroke-dashoffset="0" id="path4654" d="m330.990295,433.961578c0,9.971039 -20.207794,18.054138 -45.135376,18.054138c-24.927551,0 -45.135345,-12.331146 -45.135345,-22.302155c0,-9.971039 20.207794,3.186005 45.135345,3.186005c24.927582,0 45.135376,-8.909027 45.135376,1.062012z"/>
  <path fill="#ff003c" fill-rule="nonzero" stroke="#000000" stroke-width="2" stroke-miterlimit="4" stroke-dashoffset="0" d="m321.856201,259.68512a10.51302,10.51302 0 1 1-21.026031,0a10.51302,10.51302 0 1 121.026031,0z" id="path4658"/>
  <path fill="#ff003c" fill-rule="nonzero" stroke="#000000" stroke-width="2" stroke-miterlimit="4" stroke-dashoffset="0" id="path4690" d="m506.583649,316.062927c-7.13559,-3.80661 -9.834229,-12.676971 -6.027649,-19.812561c3.80661,-7.135559 12.676971,-9.834229 19.812592,-6.027588c8.883484,5.436554 9.924622,16.425751 3.02533,23.693726l-9.917786,-10.773651l-6.892487,12.920074z"/>
  <path fill="#ff003c" fill-rule="nonzero" stroke="#000000" stroke-width="2" stroke-miterlimit="4" stroke-dashoffset="0" id="path4690-2" d="m129.447693,140.8694c7.654205,2.611511 11.742081,10.933502 9.130554,18.587708c-2.611511,7.65416 -10.933487,11.74205 -18.587677,9.130539c-9.641205,-3.939651 -12.433266,-14.619156 -6.790405,-22.900574l11.518959,9.041473l4.728569,-13.859146z"/>
  <path fill="#000000" stroke="#000000" stroke-width="0.2" fill-opacity="0.319767" stroke-miterlimit="4" id="path4754" d="m247.78125,92.53125c-21.023193,25.3573 -27.920792,59.169708 -24.71875,87.375c0,0 15.517975,-4.862122 35.3125,-10.53125c0,0 -9.476898,-22.812134 -11.28125,-34.90625c-2.063034,-13.828003 0.6875,-41.9375 0.6875,-41.9375z"/>
  <path fill="#000000" stroke="#000000" stroke-width="0.2" fill-opacity="0.319767" stroke-miterlimit="4" id="path4761" d="m235.40625,200.3125c11.070953,48.498383 0.855988,97.001617 -19.125,145.5c1.709045,1.384338 3.415955,2.681824 5.125,3.90625c0,0 9.483368,-14.450165 12.407227,-22.500488c10.094177,-27.792572 16.118866,-57.529114 16.46875,-87.0625c0.158707,-13.395782 -6.532227,-39.655762 -6.532227,-39.655762c-2.780945,-0.064606 -5.571716,-0.112213 -8.34375,-0.1875z"/>
  <path fill="#000000" stroke="#000000" stroke-width="0.2" fill-opacity="0.319767" stroke-miterlimit="4" id="path4768" d="m111.375,149.1875c-3.056236,9.207947 2.270821,18.822205 12,20.09375c-7.791496,-6.697937 -10.525787,-13.395844 -12,-20.09375z"/>
  <path fill="#000000" stroke="#000000" stroke-width="0.2" stroke-miterlimit="4" fill-opacity="0.319767" id="path4775" d="m507.53125,289.78125c-10.721954,2.970825 -13.543335,16.372314 -3.376221,24.670532c-1.176483,-5.667175 -1.059998,-16.964386 3.376221,-24.670532z"/>
  <path fill="#000000" stroke="#000000" stroke-width="0.2" fill-opacity="0.319767" stroke-miterlimit="4" id="path4782" d="m142.21875,345.5625c-0.903259,0.096893 -1.824295,0.591248 -2.78125,1.5c-4.957001,4.707336 -3.943832,14.476959 1.65625,25.28125c-0.14743,-13.830658 1.800079,-20.852875 4.46875,-25.53125c-1.123444,-0.907928 -2.226273,-1.369873 -3.34375,-1.25z"/>
  <path fill="#000000" stroke="#000000" stroke-width="0.2" fill-opacity="0.319767" stroke-miterlimit="4" id="path4786" d="m245.15625,425.96875c-2.852371,-0.047302 -4.4375,0.945648 -4.4375,3.75c0,5.390625 5.915909,11.457428 15.28125,15.90625c0.714539,-6.497955 2.173462,-12.437622 7.09375,-15.78125c-7.72583,-1.825958 -14.030777,-3.810181 -17.9375,-3.875z"/>
  <g id="g5866">
   <path fill="#a59e9e" fill-rule="nonzero" stroke="#000000" stroke-width="0.764492" stroke-miterlimit="4" stroke-dashoffset="4.727701" d="m334.178711,156.488235c-0.138275,-12.548386 4.341064,-24.784988 8.604828,-25.731293c4.263794,-0.946381 6.697418,9.75592 6.835693,22.304306c0.001862,0.130188 0.002747,0.26059 0.003601,0.390991c0,0 -4.93457,-2.73584 -7.441437,-2.290878c-2.711334,0.481232 -8.00235,5.326874 -8.00235,5.326874l-0.000336,0z" id="path4799"/>
   <path fill="none" stroke="#000000" stroke-width="0.5" stroke-miterlimit="4" d="m336.072632,141.304672l3.339996,10.875443" id="path5854"/>
   <path fill="none" stroke="#000000" stroke-width="0.5" stroke-miterlimit="4" d="m343.345886,130.935196l-0.39624,20.108017" id="path5858"/>
   <path fill="none" stroke="#000000" stroke-width="0.5" stroke-miterlimit="4" d="m348.699707,140.449631l-3.170471,11.166977" id="path5862"/>
  </g>
  <title>Layer 1</title>
 </g>
</svg>