<?xml version="1.0" encoding="utf-8"?>
<!-- Generator: Adobe Illustrator 16.0.0, SVG Export Plug-In . SVG Version: 6.00 Build 0)  -->
<!DOCTYPE svg PUBLIC "-//W3C//DTD SVG 1.1//EN" "http://www.w3.org/Graphics/SVG/1.1/DTD/svg11.dtd">
<svg version="1.1" id="Layer_1" xmlns="http://www.w3.org/2000/svg" xmlns:xlink="http://www.w3.org/1999/xlink" x="0px" y="0px"
	 width="512px" height="512px" viewBox="0 0 512 512" enable-background="new 0 0 512 512" xml:space="preserve">
<g>
	<defs>
		<rect id="SVGID_1_" width="512" height="512"/>
	</defs>
	<clipPath id="SVGID_2_">
		<use xlink:href="#SVGID_1_"  overflow="visible"/>
	</clipPath>
	
		<linearGradient id="SVGID_3_" gradientUnits="userSpaceOnUse" x1="-255.8794" y1="767.998" x2="-255.3795" y2="767.998" gradientTransform="matrix(-302.0525 644.4487 -644.4487 -302.0525 417940.125 397055.9375)">
		<stop  offset="0" style="stop-color:#64EBDE"/>
		<stop  offset="1" style="stop-color:#52C2B8"/>
	</linearGradient>
	<polygon clip-path="url(#SVGID_2_)" fill="url(#SVGID_3_)" points="92.217,-196.752 -196.752,419.783 419.783,708.752 
		708.752,92.217 	"/>
	<path clip-path="url(#SVGID_2_)" fill-rule="evenodd" clip-rule="evenodd" fill="#FFC013" d="M442.914,175.474
		c50.486,153.183-5.811,271.929-137.41,298.788c-3.578-17.135-4.227-45.008-7.857-68.301
		c89.483-23.31,120.211-99.456,87.977-215.441C403.697,185.514,424.844,180.48,442.914,175.474"/>
</g>
<g>
	<defs>
		<path id="SVGID_4_" d="M385.623,190.52c32.234,115.985,1.506,192.131-87.977,215.441c3.631,23.293,4.278,51.166,7.856,68.302
			C437.104,447.401,493.4,328.656,442.914,175.474C424.844,180.48,403.697,185.514,385.623,190.52"/>
	</defs>
	<clipPath id="SVGID_5_">
		<use xlink:href="#SVGID_4_"  overflow="visible"/>
	</clipPath>
	<path clip-path="url(#SVGID_5_)" fill="#F17124" d="M333.904,466.664l-25.897-63.049c4.482-1.773,6.806-2.041,10.99-4.283
		l30.137,61.938C345.076,463.672,337.965,466.885,333.904,466.664"/>
	
		<rect x="385.182" y="235.1" transform="matrix(-0.9926 0.1216 -0.1216 -0.9926 879.7578 432.5143)" clip-path="url(#SVGID_5_)" fill="#F17124" width="83" height="16"/>
	
		<rect x="385.274" y="308.127" transform="matrix(-0.9846 -0.175 0.175 -0.9846 791.6367 702.0639)" clip-path="url(#SVGID_5_)" fill="#F17124" width="83" height="16"/>
	
		<rect x="355.191" y="375.517" transform="matrix(-0.8234 -0.5674 0.5674 -0.8234 505.7063 924.4088)" clip-path="url(#SVGID_5_)" fill="#F17124" width="83" height="16"/>
</g>
<g>
	<defs>
		<rect id="SVGID_6_" width="512" height="512"/>
	</defs>
	<clipPath id="SVGID_7_">
		<use xlink:href="#SVGID_6_"  overflow="visible"/>
	</clipPath>
	<path clip-path="url(#SVGID_7_)" fill-rule="evenodd" clip-rule="evenodd" fill="#BD212F" d="M412.644,188.25
		c88.229-29.238,52.08-115.02,37.437-140.956c-1.387-2.452-3.088-5.319-6.234-4.549c-4.264,1.046-32.309,10.981-36.802,13.423
		c-2.61,1.418-1.815,4.052-1.119,5.649c10.05,23.086,25.208,67.342-8.916,78.649c-34.126,11.308-48.019-33.365-53.744-57.884
		c-0.396-1.694-1.329-4.287-4.273-3.864c-5.062,0.726-33.864,9.631-37.911,11.337c-2.98,1.26-2.637,4.576-2.28,7.37
		C302.539,126.975,324.414,217.487,412.644,188.25"/>
	<path clip-path="url(#SVGID_7_)" fill="#BD212F" d="M79.865,48.258l89.719-11.417c4.527-0.576,8.662,2.629,9.238,7.156
		s-2.624,8.666-7.152,9.242l-36.908,4.696l11.106,87.28c0.576,4.527-2.625,8.666-7.151,9.242c-4.527,0.576-8.663-2.629-9.239-7.156
		l-11.107-87.28l-36.421,4.635c-4.526,0.576-8.662-2.629-9.238-7.156C72.137,52.973,75.338,48.834,79.865,48.258"/>
	<path clip-path="url(#SVGID_7_)" fill-rule="evenodd" clip-rule="evenodd" fill="#FFC013" d="M229.339,120.078
		c-3.207-8.232-9.368-17.584-23.296-17.557c-17.236,0.034-124.582,13.694-140.784,17.916c-13.479,3.512-17.113,14.059-18.157,22.831
		c-1.043,8.772,4.672,219.193,7.089,229.688l225.811-28.735C279.714,333.456,232.546,128.311,229.339,120.078"/>
	<path clip-path="url(#SVGID_7_)" fill="#482E1F" d="M200.631,240.29c-0.797-5.703-101.496,5.844-100.938,11.701
		c1.635,17.139,25.341,37.939,55.263,34.866C182.778,283.998,203.119,258.092,200.631,240.29"/>
	<path clip-path="url(#SVGID_7_)" fill-rule="evenodd" clip-rule="evenodd" fill="#482E1F" d="M214.117,186.256
		c1.102,8.657-5.022,16.567-13.68,17.669c-8.655,1.102-16.568-5.023-17.669-13.68c-1.102-8.657,5.025-16.567,13.68-17.669
		C205.106,171.474,213.016,177.6,214.117,186.256"/>
	<path clip-path="url(#SVGID_7_)" fill-rule="evenodd" clip-rule="evenodd" fill="#482E1F" d="M105.71,200.051
		c1.102,8.657-5.025,16.567-13.68,17.669c-8.658,1.102-16.568-5.023-17.67-13.679c-1.102-8.657,5.022-16.568,13.68-17.67
		C96.695,185.27,104.608,191.395,105.71,200.051"/>
	<path clip-path="url(#SVGID_7_)" fill-rule="evenodd" clip-rule="evenodd" fill="#F17124" d="M387.532,661.25
		c1.006,12.12-3.858,20.075-17.069,23.19c-37.556,8.86-288.721,46.471-322.936,49.095c-10.995,0.845-20.011-4.164-23.189-17.069
		c-8.219-33.362-50.811-313.519-52.41-344.741c-0.521-10.168,7.395-21.107,17.069-23.191c45.15-9.726,285.042-46.195,322.935-49.096
		c9.024-0.689,21.305,7.065,23.19,17.072C338.646,335.176,384.799,628.199,387.532,661.25"/>
	<path clip-path="url(#SVGID_7_)" fill-rule="evenodd" clip-rule="evenodd" fill="#BD212F" d="M217.241,356.04
		c-24.771-11.616-42.008,18.336-44.469,40.494c-8.883-20.448-34.182-43.99-54.427-25.589
		c-29.755,27.043,26.746,105.168,65.07,124.48c2.968,1.494,5.65,1.162,8.314-1.24C223.679,465.373,253.652,373.116,217.241,356.04"
		/>
</g>
</svg>
